<svg width="155" height="44" fill="none" xmlns="http://www.w3.org/2000/svg">
<rect width="155" height="44" fill="white" fill-opacity="0.05"/>
<path d="M16 26.4663H19.1263V21.8988H20.6099C22.2185 21.8988 23.344 21.415 24.1284 20.6106C24.9299 19.7894 25.4131 18.6813 25.4131 17.4494C25.4131 16.2175 24.9299 15.1094 24.1284 14.2881C23.3383 13.4894 22.2128 13.0056 20.6042 13.0056H16V26.4663ZM19.1263 19.1313V15.7731H20.1608C21.0021 15.7731 21.4114 15.97 21.7126 16.2569C22.0139 16.5438 22.1958 16.9713 22.1958 17.455C22.1958 17.9388 22.0196 18.3663 21.7126 18.6531C21.4057 18.94 20.9964 19.1369 20.1608 19.1369H19.1263V19.1313ZM36.4632 31H39.6406L46.3707 17.5394H43.1933L41.1583 21.7863H41.1413L38.8392 17.5394H35.4457L39.5724 24.8238L36.4632 31ZM47.0187 26.4663H50.1451V21.8988H51.6286C53.2373 21.8988 54.3627 21.415 55.1472 20.6106C55.9486 19.7894 56.4318 18.6813 56.4318 17.4494C56.4318 16.2175 55.9486 15.1094 55.1472 14.2881C54.3627 13.4838 53.2373 13 51.6286 13H47.0244V26.4606L47.0187 26.4663ZM50.1451 19.1313V15.7731H51.1796C52.0208 15.7731 52.4301 15.97 52.7314 16.2569C53.0326 16.5438 53.2145 16.9713 53.2145 17.455C53.2145 17.9388 53.0383 18.3663 52.7314 18.6531C52.4244 18.94 52.0152 19.1369 51.1796 19.1369H50.1451V19.1313ZM29.4659 26.7531C30.4834 26.7531 31.3928 26.3594 32.0749 25.7013V26.4663H34.8091V17.5394H32.0749V18.3044C31.3985 17.6463 30.4834 17.2525 29.4659 17.2525C26.9137 17.2525 24.9469 19.3394 24.9469 22C24.9469 24.6606 26.9137 26.7475 29.4659 26.7475V26.7531ZM29.9661 24.0363C28.8577 24.0363 28.0392 23.1812 28.0392 22C28.0392 20.8187 28.8634 19.9637 29.9661 19.9637C31.0688 19.9637 31.8931 20.8187 31.8931 22C31.8931 23.1812 31.0688 24.0363 29.9661 24.0363ZM60.4789 26.7531C61.4964 26.7531 62.4059 26.3594 63.088 25.7013V26.4663H65.8221V17.5394H63.088V18.3044C62.4116 17.6463 61.4964 17.2525 60.4789 17.2525C57.9267 17.2525 55.96 19.3394 55.96 22C55.96 24.6606 57.9267 26.7475 60.4789 26.7475V26.7531ZM60.9792 24.0363C59.8707 24.0363 59.0522 23.1812 59.0522 22C59.0522 20.8187 59.8764 19.9637 60.9792 19.9637C62.0819 19.9637 62.9061 20.8187 62.9061 22C62.9061 23.1812 62.0819 24.0363 60.9792 24.0363ZM66.9987 26.4663H70V13.0056H66.9987V26.4663Z" fill="white"/>
<path d="M78.63 21V15.345H80.25C80.9025 15.345 81.3375 15.54 81.645 15.8475C81.96 16.1625 82.1475 16.605 82.1475 17.0925C82.1475 17.58 81.96 18.0225 81.645 18.3375C81.3375 18.645 80.9025 18.84 80.25 18.84H79.6425V21H78.63ZM79.6425 17.9175H80.13C80.52 17.9175 80.73 17.8275 80.8725 17.6775C81.015 17.5275 81.105 17.3325 81.105 17.0925C81.105 16.8525 81.015 16.6575 80.8725 16.5075C80.73 16.3575 80.52 16.2675 80.13 16.2675H79.6425V17.9175ZM82.467 21V17.3325H83.3745V17.8125C83.412 17.7675 83.4495 17.7225 83.4945 17.6775C83.7345 17.4375 84.057 17.295 84.4245 17.2875C84.5295 17.2875 84.6345 17.295 84.732 17.3175V18.225C84.6345 18.21 84.5295 18.2025 84.417 18.2025C84.1245 18.2025 83.877 18.3 83.7045 18.48C83.5395 18.6525 83.442 18.885 83.442 19.2975V21H82.467ZM86.7198 21.105C85.6098 21.105 84.7923 20.265 84.7923 19.17C84.7923 18.06 85.5648 17.235 86.6298 17.235C87.6948 17.235 88.4673 18.06 88.4673 19.17C88.4673 19.275 88.4598 19.38 88.4373 19.4775H85.7748C85.8498 19.8975 86.2398 20.205 86.7423 20.205C87.1098 20.205 87.4173 20.0175 87.5898 19.7175L88.3773 20.175C88.0473 20.73 87.4473 21.105 86.7198 21.105ZM85.7673 18.765H87.4923C87.4323 18.345 87.0948 18.045 86.6298 18.045C86.1648 18.045 85.8273 18.345 85.7673 18.765ZM89.2474 21V18.2025H88.5424V17.3325H89.2474V16.5825C89.2474 16.05 89.3974 15.705 89.6449 15.4575C89.8924 15.21 90.2299 15.06 90.6199 15.06C90.8074 15.06 90.9649 15.09 91.1599 15.165V16.0575C91.0474 16.005 90.9199 15.975 90.7774 15.975C90.6199 15.975 90.4849 16.035 90.3874 16.1325C90.2824 16.23 90.2224 16.3725 90.2224 16.68V17.3325H91.1599V18.2025H90.2224V21H89.2474ZM93.096 21.105C91.986 21.105 91.1685 20.265 91.1685 19.17C91.1685 18.06 91.941 17.235 93.006 17.235C94.071 17.235 94.8435 18.06 94.8435 19.17C94.8435 19.275 94.836 19.38 94.8135 19.4775H92.151C92.226 19.8975 92.616 20.205 93.1185 20.205C93.486 20.205 93.7935 20.0175 93.966 19.7175L94.7535 20.175C94.4235 20.73 93.8235 21.105 93.096 21.105ZM92.1435 18.765H93.8685C93.8085 18.345 93.471 18.045 93.006 18.045C92.541 18.045 92.2035 18.345 92.1435 18.765ZM95.3731 21V17.3325H96.2806V17.8125C96.3181 17.7675 96.3556 17.7225 96.4006 17.6775C96.6406 17.4375 96.9631 17.295 97.3306 17.2875C97.4356 17.2875 97.5406 17.295 97.6381 17.3175V18.225C97.5406 18.21 97.4356 18.2025 97.3231 18.2025C97.0306 18.2025 96.7831 18.3 96.6106 18.48C96.4456 18.6525 96.3481 18.885 96.3481 19.2975V21H95.3731ZM98.0412 21V17.3325H98.9487V17.8125C98.9862 17.7675 99.0237 17.7225 99.0687 17.6775C99.3087 17.4375 99.6312 17.295 99.9987 17.2875C100.104 17.2875 100.209 17.295 100.306 17.3175V18.225C100.209 18.21 100.104 18.2025 99.9912 18.2025C99.6987 18.2025 99.4512 18.3 99.2787 18.48C99.1137 18.6525 99.0162 18.885 99.0162 19.2975V21H98.0412ZM102.294 21.105C101.184 21.105 100.367 20.265 100.367 19.17C100.367 18.06 101.139 17.235 102.204 17.235C103.269 17.235 104.042 18.06 104.042 19.17C104.042 19.275 104.034 19.38 104.012 19.4775H101.349C101.424 19.8975 101.814 20.205 102.317 20.205C102.684 20.205 102.992 20.0175 103.164 19.7175L103.952 20.175C103.622 20.73 103.022 21.105 102.294 21.105ZM101.342 18.765H103.067C103.007 18.345 102.669 18.045 102.204 18.045C101.739 18.045 101.402 18.345 101.342 18.765ZM106.191 21.105C105.126 21.105 104.324 20.25 104.324 19.17C104.324 18.09 105.126 17.235 106.191 17.235C106.596 17.235 106.956 17.3775 107.241 17.6175V15.165H108.216V21H107.316V20.655C107.024 20.94 106.634 21.105 106.191 21.105ZM106.304 20.19C106.866 20.19 107.279 19.755 107.279 19.17C107.279 18.585 106.866 18.15 106.304 18.15C105.741 18.15 105.329 18.585 105.329 19.17C105.329 19.755 105.741 20.19 106.304 20.19ZM78.63 28V22.345H80.25C80.9025 22.345 81.3375 22.54 81.645 22.8475C81.96 23.1625 82.1475 23.605 82.1475 24.0925C82.1475 24.58 81.96 25.0225 81.645 25.3375C81.3375 25.645 80.9025 25.84 80.25 25.84H79.6425V28H78.63ZM79.6425 24.9175H80.13C80.52 24.9175 80.73 24.8275 80.8725 24.6775C81.015 24.5275 81.105 24.3325 81.105 24.0925C81.105 23.8525 81.015 23.6575 80.8725 23.5075C80.73 23.3575 80.52 23.2675 80.13 23.2675H79.6425V24.9175ZM83.9112 28.105C82.8462 28.105 82.0437 27.25 82.0437 26.17C82.0437 25.09 82.8462 24.235 83.9112 24.235C84.3537 24.235 84.7437 24.4 85.0362 24.685V24.3325H85.9362V28H85.0362V27.655C84.7437 27.94 84.3537 28.105 83.9112 28.105ZM84.0237 27.19C84.5862 27.19 84.9987 26.755 84.9987 26.17C84.9987 25.585 84.5862 25.15 84.0237 25.15C83.4612 25.15 83.0487 25.585 83.0487 26.17C83.0487 26.755 83.4612 27.19 84.0237 27.19ZM86.5686 29.905L87.8586 27.355L86.1561 24.3325H87.2436L88.3611 26.35H88.3686L89.3661 24.3325H90.4086L87.6111 29.905H86.5686ZM90.6888 28V24.3325H91.5963V24.61C91.8138 24.3775 92.1288 24.2275 92.5038 24.2275C92.9313 24.2275 93.2988 24.4225 93.5463 24.73C93.8013 24.4225 94.1988 24.2275 94.6638 24.2275C95.0913 24.2275 95.4738 24.4225 95.7288 24.73C95.9238 24.97 96.0438 25.2925 96.0438 25.7875V28H95.0688V25.87C95.0688 25.5475 95.0013 25.3975 94.8888 25.285C94.7838 25.18 94.6338 25.1125 94.4613 25.1125C94.2888 25.1125 94.1388 25.18 94.0338 25.285C93.9213 25.3975 93.8538 25.5475 93.8538 25.87V28H92.8788V25.87C92.8788 25.5475 92.8113 25.3975 92.6988 25.285C92.5938 25.18 92.4438 25.1125 92.2713 25.1125C92.0988 25.1125 91.9488 25.18 91.8438 25.285C91.7313 25.3975 91.6638 25.5475 91.6638 25.87V28H90.6888ZM98.4573 28.105C97.3473 28.105 96.5298 27.265 96.5298 26.17C96.5298 25.06 97.3023 24.235 98.3673 24.235C99.4323 24.235 100.205 25.06 100.205 26.17C100.205 26.275 100.197 26.38 100.175 26.4775H97.5123C97.5873 26.8975 97.9773 27.205 98.4798 27.205C98.8473 27.205 99.1548 27.0175 99.3273 26.7175L100.115 27.175C99.7848 27.73 99.1848 28.105 98.4573 28.105ZM97.5048 25.765H99.2298C99.1698 25.345 98.8323 25.045 98.3673 25.045C97.9023 25.045 97.5648 25.345 97.5048 25.765ZM100.734 28V24.3325H101.642V24.625C101.882 24.385 102.227 24.235 102.609 24.235C103.014 24.235 103.374 24.3925 103.637 24.6625C103.914 24.9325 104.079 25.3075 104.079 25.885V28H103.104V25.9675C103.104 25.6225 103.029 25.45 102.902 25.3225C102.782 25.195 102.602 25.12 102.407 25.12C102.212 25.12 102.032 25.195 101.912 25.3225C101.784 25.4575 101.709 25.6225 101.709 25.9675V28H100.734ZM105.088 28V25.2025H104.391V24.3325H105.088V22.9825H106.063V24.3325H106.873V25.2025H106.063V28H105.088ZM108.36 28.105C107.677 28.105 107.107 27.6625 107.01 27.07L107.955 26.935C107.992 27.1225 108.172 27.25 108.36 27.25C108.555 27.25 108.69 27.1225 108.69 26.9425C108.69 26.7925 108.6 26.695 108.397 26.6275L107.985 26.485C107.317 26.2525 107.062 25.8175 107.062 25.3525C107.062 24.73 107.61 24.235 108.337 24.235C108.907 24.235 109.38 24.55 109.545 24.9925L108.645 25.33C108.607 25.1875 108.48 25.09 108.337 25.09C108.172 25.09 108.052 25.1875 108.052 25.33C108.052 25.45 108.135 25.5325 108.315 25.5925L108.712 25.7275C109.447 25.975 109.68 26.485 109.68 26.92C109.68 27.5725 109.117 28.105 108.36 28.105ZM111.739 28V22.345H113.359C114.012 22.345 114.447 22.54 114.754 22.8475C115.069 23.1625 115.257 23.605 115.257 24.0925C115.257 24.58 115.069 25.0225 114.754 25.3375C114.447 25.645 114.012 25.84 113.359 25.84H112.752V28H111.739ZM112.752 24.9175H113.239C113.629 24.9175 113.839 24.8275 113.982 24.6775C114.124 24.5275 114.214 24.3325 114.214 24.0925C114.214 23.8525 114.124 23.6575 113.982 23.5075C113.839 23.3575 113.629 23.2675 113.239 23.2675H112.752V24.9175ZM117.02 28.105C115.955 28.105 115.153 27.25 115.153 26.17C115.153 25.09 115.955 24.235 117.02 24.235C117.463 24.235 117.853 24.4 118.145 24.685V24.3325H119.045V28H118.145V27.655C117.853 27.94 117.463 28.105 117.02 28.105ZM117.133 27.19C117.695 27.19 118.108 26.755 118.108 26.17C118.108 25.585 117.695 25.15 117.133 25.15C116.57 25.15 116.158 25.585 116.158 26.17C116.158 26.755 116.57 27.19 117.133 27.19ZM119.826 28V24.3325H120.734V24.8125C120.771 24.7675 120.809 24.7225 120.854 24.6775C121.094 24.4375 121.416 24.295 121.784 24.2875C121.889 24.2875 121.994 24.295 122.091 24.3175V25.225C121.994 25.21 121.889 25.2025 121.776 25.2025C121.484 25.2025 121.236 25.3 121.064 25.48C120.899 25.6525 120.801 25.885 120.801 26.2975V28H119.826ZM122.862 28V25.2025H122.164V24.3325H122.862V22.9825H123.837V24.3325H124.647V25.2025H123.837V28H122.862ZM125.06 28V24.3325H125.967V24.625C126.207 24.385 126.552 24.235 126.935 24.235C127.34 24.235 127.7 24.3925 127.962 24.6625C128.24 24.9325 128.405 25.3075 128.405 25.885V28H127.43V25.9675C127.43 25.6225 127.355 25.45 127.227 25.3225C127.107 25.195 126.927 25.12 126.732 25.12C126.537 25.12 126.357 25.195 126.237 25.3225C126.11 25.4575 126.035 25.6225 126.035 25.9675V28H125.06ZM130.822 28.105C129.712 28.105 128.894 27.265 128.894 26.17C128.894 25.06 129.667 24.235 130.732 24.235C131.797 24.235 132.569 25.06 132.569 26.17C132.569 26.275 132.562 26.38 132.539 26.4775H129.877C129.952 26.8975 130.342 27.205 130.844 27.205C131.212 27.205 131.519 27.0175 131.692 26.7175L132.479 27.175C132.149 27.73 131.549 28.105 130.822 28.105ZM129.869 25.765H131.594C131.534 25.345 131.197 25.045 130.732 25.045C130.267 25.045 129.929 25.345 129.869 25.765ZM133.099 28V24.3325H134.006V24.8125C134.044 24.7675 134.081 24.7225 134.126 24.6775C134.366 24.4375 134.689 24.295 135.056 24.2875C135.161 24.2875 135.266 24.295 135.364 24.3175V25.225C135.266 25.21 135.161 25.2025 135.049 25.2025C134.756 25.2025 134.509 25.3 134.336 25.48C134.171 25.6525 134.074 25.885 134.074 26.2975V28H133.099Z" fill="white"/>
</svg>
